<svg width="582" height="201" viewBox="0 0 582 201" fill="none" xmlns="http://www.w3.org/2000/svg">
<path d="M542 170C533.148 180.162 520.234 181.054 511.053 171.439C502.6 162.587 492.161 159.358 480.433 159.023C475.771 158.89 471.101 158.959 466.436 159.026C465.056 159.045 463.68 159.369 462.302 159.553C462.169 160.114 462.036 160.674 461.904 161.234C464.267 162.156 466.563 163.521 469.009 163.887C472.106 164.35 475.33 164.117 478.49 163.971C482.609 163.782 485.065 165.973 487.417 169.611C479.725 170.097 472.585 170.845 465.446 170.84C462.929 170.838 460.038 169.485 457.967 167.901C450.995 162.566 442.961 160.288 434.537 160.113C415.219 159.711 395.888 159.932 376.563 159.815C374.003 159.799 371.421 158.903 368.893 159.075C362.544 159.507 356.232 160.546 349.881 160.884C346.333 161.073 342.733 160.393 339.165 160.021C336.585 159.752 334.026 159.106 331.446 159.041C315.031 158.631 298.612 158.342 282.195 158C266.611 157.675 251.027 157.33 235.442 157.002C219.358 156.663 203.275 156.136 187.189 156.07C176.773 156.028 166.354 156.904 155.935 156.926C147.018 156.945 138.097 156.019 129.181 156.069C113.429 156.156 97.6466 156.152 81.9372 157.143C65.8091 158.16 49.7639 160.439 33.6593 161.913C28.7011 162.367 23.6639 162.078 18.6703 161.909C17.7744 161.879 16.1283 160.689 16.1809 160.172C16.366 158.352 16.6018 155.648 17.7841 154.974C23.0148 151.994 28.5543 149.545 34.0402 147.03C36.3244 145.983 38.6902 144.852 41.1308 144.465C45.7819 143.726 50.5062 143.343 55.2147 143.121C57.2818 143.023 59.3746 143.823 61.4731 143.973C67.2192 144.384 72.9848 145.068 78.7244 144.923C97.2323 144.455 115.844 144.673 134.195 142.637C146.251 141.3 157.752 141.825 169.489 143.885C173.208 144.538 177.137 143.998 180.97 143.998C196.801 143.999 212.639 143.744 228.463 144.079C240.975 144.344 253.468 145.799 265.975 145.886C283.222 146.005 300.483 145.563 317.719 144.88C324.151 144.626 330.649 143.49 336.902 141.91C344.877 139.895 352.417 142.051 360.119 143.029C365.445 143.706 370.764 144.749 376.108 144.911C386.098 145.216 396.137 145.516 406.093 144.864C417.612 144.11 429.103 142.591 440.516 140.819C443.64 140.333 446.524 137.885 449.364 136.095C453.515 133.478 457.614 132.196 462.667 133.702C465.488 134.543 468.764 133.853 471.835 133.853C472.027 134.537 472.219 135.221 472.41 135.906C469.827 136.937 467.311 138.215 464.646 138.943C460.751 140.007 456.749 140.676 452.793 141.513C452.819 142.324 452.846 143.135 452.872 143.945C455.871 144.288 458.895 145.055 461.865 144.887C468.713 144.5 475.53 143.608 482.368 143.012C492.779 142.106 502.409 139.244 509.895 131.521C514.407 126.866 519.435 125.811 525.417 127.955C527.064 128.545 528.979 129.204 530.603 128.907C537.898 127.575 541.758 131.692 544.679 137.822C540.1 139.408 535.681 140.473 531.309 141.527C531.583 146.329 528.987 150.173 524 151C523.5 147.5 524.067 145.909 524.607 143.239C517.631 141.706 513.203 145.691 508.859 150.949C514.063 155.675 516.629 162.883 525 164C526.556 162.994 528.658 160.708 530.5 159C530.5 160.925 529.917 163.051 529.972 164.376C532.433 170.07 537.599 167.083 541.5 168C541.887 168.797 541.728 169.476 542 170Z" fill="#FEFEFE"/>
<path d="M217.953 108.213C228.145 105.689 227.726 96.6587 228.837 89.2337C230.764 76.3649 232.123 63.3694 232.863 50.3782C233.442 40.1992 220.603 24.5921 207.337 25.1506C203.683 25.3044 200.103 27.2316 195.184 28.7473C197.087 26.468 198.207 24.145 200.051 23.1C205.749 19.8721 211.862 20.0659 218.403 20.4991C230.763 21.3175 236.375 29.817 240.812 38.9629C248.55 54.9117 255.172 71.4025 262.713 88.7036C269.359 71.6992 275.694 55.4885 282.06 39.2001C287.12 39.0775 292.165 36.0735 296.693 39.3307C294.329 42.3106 291.36 44.7284 290.292 47.806C289.381 50.4304 290.553 53.8281 290.982 56.8582C292.617 68.3927 294.283 79.9231 296.03 91.4411C296.584 95.1007 297.065 98.8462 298.299 102.295C298.858 103.856 301.199 104.76 302.686 106.015C303.481 106.687 304.181 107.471 304.924 108.205C304.225 108.801 303.534 109.904 302.826 109.915C295.834 110.024 288.838 110.002 281.846 109.853C281.158 109.839 280.493 108.734 279.658 107.995C281.971 106.599 285.283 105.716 285.63 104.169C286.483 100.357 286.391 96.1912 285.929 92.2559C284.853 83.0878 283.347 73.9697 281.985 64.8359C281.658 62.6432 281.212 60.4683 280.776 58.0382C272.805 74.6196 268.736 92.5326 260.294 108.543C259.718 108.415 259.141 108.287 258.565 108.159C251.923 91.8667 245.281 75.5747 238.64 59.2827C237.794 75.7682 229.974 91.9186 236.752 109.339C230.87 108.945 224.9 108.545 218.447 108.087C217.964 108.03 217.953 108.213 217.953 108.213Z" fill="#FBFBFB"/>
<path d="M100.262 107.994C105.251 107.733 109.805 107.503 114.356 107.202C118.949 106.899 120.124 103.713 120.015 99.8958C119.794 92.1571 119.603 84.3977 118.789 76.7114C118.609 75.0062 115.948 73.5165 114.335 72.03C113.552 71.3082 112.551 70.8227 111.648 70.2303C111.804 69.7233 111.959 69.2162 112.114 68.7092C120.227 68.7092 128.34 68.7092 138.129 68.7092C136.544 70.4781 135.993 71.6522 135.137 71.9485C132.076 73.0087 130.919 75.0142 130.973 78.1725C131.086 84.6664 130.808 91.1723 131.092 97.6557C131.232 100.847 132.266 103.999 133.132 108.364C129.552 109.496 124.866 111.282 120.029 112.45C107.327 115.516 94.634 115.075 82.8803 109.234C68.4502 102.063 60.4012 90.0991 57.8485 73.9297C55.655 60.0353 58.0055 47.4294 66.0861 36.1699C73.754 25.4855 84.4523 19.6768 97.7832 18.9943C107.017 18.5216 115.909 19.9558 124.638 22.944C127.641 23.9722 129.313 25.2276 129.068 28.7999C128.727 33.7532 128.982 38.7475 128.001 44.241C127.332 43.248 126.449 42.3378 126.025 41.249C122.093 31.1423 113.387 25.7002 103.144 24.89C84.9817 23.4532 76.028 35.0924 72.4012 49.7374C68.5049 65.4708 70.6694 81.1188 80.0597 94.9593C84.7761 101.911 91.6498 106.054 100.262 107.994Z" fill="#FCFCFC"/>
<path d="M323.077 108.034C310.728 102.464 302.51 91.2799 301.923 78.2139C301.357 65.6232 304.939 54.9521 314.24 46.2007C327.981 33.2712 356.091 34.4292 365.935 54.4739C373.813 70.5151 371.831 85.4002 361.213 99.0268C356.303 105.329 348.949 108.623 340.836 110.099C334.72 111.211 329.063 110.464 323.077 108.034ZM352.094 100.332C354.062 97.0576 356.882 94.0139 357.84 90.4672C360.848 79.3273 360.044 68.2766 355.185 57.6448C352.027 50.7349 347.289 45.3604 339.796 43.4276C335.55 42.3323 330.276 41.6261 327.708 46.1446C326.227 48.7493 325.893 53.4411 327.287 55.9422C330.077 60.9485 333.763 65.9209 338.238 69.4288C348.411 77.4027 354.629 86.4489 350.362 100.124C350.322 100.662 350.283 101.199 350.243 101.737C350.681 101.42 351.12 101.103 352.094 100.332ZM320.906 47.6591C319.938 48.7649 318.784 49.7577 318.031 50.9947C312.433 60.1938 311.22 70.0869 314.05 80.3779C315.265 84.7971 316.675 89.3167 318.922 93.2643C322.89 100.237 328.806 104.777 337.33 105.012C346.733 105.271 347.821 97.9279 346.479 91.8725C344.338 82.2141 336.869 76.6511 329.713 71.6545C322.398 66.5464 319.232 54.9173 322.638 47.8768C322.677 47.3384 322.716 46.7999 322.755 46.2614C322.316 46.5768 321.878 46.8922 320.906 47.6591Z" fill="#FBFBFB"/>
<path d="M454.688 108.694C458.948 118.586 471.301 122.754 482.412 118.048C482.648 121.341 478.014 124.589 473.117 125.043C458.577 126.39 448.486 119.525 441.005 107.861C435.62 99.466 429.894 91.2207 425.371 82.3716C423.051 77.8344 420.397 77.5216 415.993 78.3253C415.993 85.8544 415.809 93.4847 416.143 101.092C416.213 102.682 418.055 104.32 419.342 105.689C420.359 106.772 421.778 107.477 422.797 109.259C414.744 109.53 406.833 110.993 399.145 109.177C401.427 105.894 403.215 103.322 405.459 100.269C406.273 99.0962 406.937 98.4052 406.94 97.7109C407.004 84.5742 407.027 71.4368 406.912 58.3008C406.904 57.3745 405.762 56.458 405.147 55.537C405.045 52.8841 405.565 49.9906 404.659 47.6481C403.806 45.4406 401.388 43.8645 399.793 41.9018C399.275 41.2652 399.181 40.2848 398.73 38.9977C408.918 38.9977 418.672 38.7214 428.402 39.0841C436.339 39.38 442.628 43.3108 444.828 51.0928C447.629 61.0025 443.416 69.7329 434.507 75.0777C434.372 75.1586 434.29 75.3275 433.362 76.4387C440.155 86.9685 447.167 97.8361 454.471 108.738C454.763 108.772 454.688 108.694 454.688 108.694ZM422.245 44.0058C419.709 44.843 415.201 41.7769 415.03 47.2702C414.803 54.5695 414.856 61.8842 415.071 69.184C415.109 70.4698 416.266 72.4731 417.356 72.852C423.212 74.888 431.571 70.2725 433.362 64.1179C436.061 54.8451 431.93 44.89 422.245 44.0058Z" fill="#FCFCFB"/>
<path d="M144.113 86.9796C144.182 78.9357 144.251 70.8918 144.604 62.3274C146.18 57.1109 147.697 52.4023 144.113 47.9796C142.063 45.1509 140.012 42.3222 137.602 38.9973C148.78 38.9973 159.521 37.971 169.968 39.2804C180.833 40.642 186.33 50.2378 184.786 60.2666C183.735 67.0969 180.19 72.6458 172.516 75.5713C177.743 84.3183 182.579 93.11 188.123 101.43C191.473 106.456 195.505 111.219 200.01 115.221C203.465 118.289 208.14 119.983 212.677 122.514C210.744 125.302 206.968 125.534 203.511 124.891C195.104 123.329 187.902 119.211 183.075 112.064C175.885 101.417 169.177 90.445 162.191 79.659C161.701 78.9031 160.604 78.5409 159.584 77.6906C159.602 77.1485 159.846 76.9258 160.038 76.6649C160.096 76.5871 160.044 76.3037 159.98 76.2799C156.296 74.905 153.298 76.2566 153.123 79.8192C152.843 85.5502 152.987 91.3063 153.125 97.0476C153.141 97.7147 154.251 98.3557 154.855 99.0087C156.765 102.6 158.674 106.191 160.709 110.018C153.173 109.701 145.483 110.62 138.042 109.497C140.515 105.885 142.262 103.334 144.441 100.281C146.227 95.4181 147.619 91.0531 144.113 86.9796ZM156.035 71.9904C157.69 71.9917 159.345 71.9949 161 71.9939C168.254 71.9893 171.925 68.6739 173.928 60.3191C175.013 55.7947 171.758 47.6511 167.363 46.0678C163.541 44.6912 159.229 44.6736 154.32 44.1871C153.916 44.6538 153.166 45.1161 153.16 45.5878C153.06 53.6481 152.997 61.7104 153.116 69.7694C153.127 70.5036 154.434 71.2187 156.035 71.9904Z" fill="#FCFCFC"/>
<path d="M456.013 108.829C455.788 108.875 455.564 108.92 455.014 108.829C454.688 108.694 454.763 108.772 454.796 108.8C455.228 108.215 455.49 107.277 456.049 107.04C460.793 105.031 462.02 101.171 462.011 96.4754C461.977 76.3818 461.865 56.2868 462.072 36.1954C462.139 29.7326 460.709 24.6464 453.736 22.4967C453.818 22.0033 453.9 21.5099 453.983 21.0165C456.684 21.0165 459.385 21.0165 462.717 20.9181C463.637 20.6741 463.85 20.455 463.988 20.1624C475.965 20.1065 487.943 20.1082 499.918 19.9542C502.897 19.9158 504.153 20.9388 504.047 24.002C503.888 28.5959 504.006 33.1994 504.006 38.897C502.13 37.4743 501.389 37.1759 501.387 36.8728C501.329 27.9342 494.516 26.9723 488.161 26.1236C483.625 25.5178 478.943 26.006 473.962 26.006C473.962 33.2103 474.076 39.9924 473.918 46.7681C473.827 50.6851 473.418 54.6071 472.931 58.4991C472.465 62.2259 474.71 63.8502 477.667 63.9102C481.876 63.9957 486.197 63.6694 490.272 62.691C491.8 62.3241 492.838 59.6832 493.973 57.9944C494.788 56.783 495.393 55.431 496.644 53.122C496.644 62.2811 496.644 70.0711 496.644 77.8612C492.998 65.3546 482.825 69.7592 474.006 68.8724C474.006 77.6305 473.964 86.2008 474.017 94.7706C474.082 105.371 472.648 104.078 483.301 103.909C488.276 103.83 493.238 102.84 498.612 102.591C500.741 104.4 502.465 105.882 504.621 107.737C502.793 107.833 501.22 107.987 499.647 107.989C486.855 108.008 474.063 107.967 461.272 108.035C459.517 108.045 457.765 108.552 456.013 108.829Z" fill="#FCFCFC"/>
<path d="M374.456 42.1888C373.269 41.3341 372.474 40.6323 371.345 39.6348C379.829 39.6348 387.314 39.6348 394.798 39.6348C395.105 39.9961 395.413 40.3574 395.72 40.7187C386.548 42.7791 387.916 49.5599 387.901 55.6662C387.866 68.9987 387.915 82.3313 387.895 95.6638C387.888 100.428 388.529 104.797 393.452 107.22C393.906 107.444 393.892 108.617 394.142 109.521C386.403 109.521 378.956 109.521 370.834 109.521C371.517 108.367 371.69 107.621 372.108 107.439C378.124 104.814 377.799 99.1093 377.918 94.2044C378.266 79.8803 378.217 65.5382 377.895 51.2128C377.828 48.2344 375.913 45.2976 374.456 42.1888Z" fill="#F7F7F7"/>
<path d="M217.9 107.785C217.953 108.213 217.963 108.03 217.957 107.985C217.556 108.55 217.161 109.16 216.276 109.437C209.513 109.102 203.239 109.102 196.966 109.102C196.765 108.481 196.564 107.86 196.363 107.239C202.044 105.867 201.883 100.903 201.957 96.8736C202.248 80.9305 202.35 64.9691 201.813 49.0384C201.709 45.975 198.408 43.0195 196.46 39.8135C197.708 38.8013 205.909 38.2898 218.202 39.3246C216.028 42.0993 214.015 44.6687 211.55 47.7255C210.739 48.8996 210.068 49.5851 210.065 50.2735C210.001 65.1931 209.976 80.1132 210.087 95.0322C210.095 96.0288 211.247 97.0168 211.867 98.0088C212.054 102.28 212.935 106.108 217.9 107.785Z" fill="#F8F8F8"/>
<path d="M530.008 163.851C530.008 162.903 530.008 161.954 530.008 160.029C528.172 161.737 527.533 162.88 526 163.5C525.116 159.143 524.702 154.72 524 151C529.032 149.761 531.273 145.802 531 141C535.356 139.946 539.8 138.76 544.5 137.5C555.231 144.332 556.259 155.722 551.913 162.402C549.873 165.537 545.455 167.502 542 170C541.364 169.528 541.549 168.914 541.117 167.788C537.306 166.074 533.657 164.963 530.008 163.851ZM540.5 146.5C539.494 145.834 539.006 145.666 538 145C537.782 145.708 537.58 145.512 537.362 146.22C538.591 146.43 541.752 145.521 543 146.5C544.089 150.448 543.5 147 547.439 149.647C545.308 148.716 542.644 148.192 540.5 146.5ZM550.754 156.696C553.267 153.914 552.112 151.607 549.178 149.499C549.459 151.951 549.74 154.403 549.495 157.221C549.125 158.194 548.755 159.168 548.385 160.141C548.774 160.239 549.164 160.338 549.553 160.436C549.706 159.24 549.859 158.043 550.754 156.696ZM543.641 159.096C543.232 159.749 542.823 160.403 542.415 161.056C542.698 161.36 542.982 161.664 543.265 161.968C544.489 160.762 545.835 159.648 546.841 158.28C547.061 157.981 546.216 156.63 545.604 156.027C544.168 154.615 542.741 153.03 540.993 152.153C539.678 151.494 537.869 151.826 536.28 151.716C536.507 153.076 536.268 155.121 537.054 155.659C538.969 156.972 541.359 157.586 543.641 159.096Z" fill="#F5F6F6"/>
<path d="M456.436 108.907C457.764 108.552 459.516 108.045 461.27 108.035C474.062 107.967 486.854 108.008 499.646 107.989C501.219 107.987 502.792 107.834 504.62 107.737C502.463 105.882 500.74 104.4 499.008 102.538C502.43 98.4361 505.861 94.7146 509.292 90.9932C509.661 91.1121 510.03 91.231 510.398 91.35C508.878 97.1027 507.462 102.888 505.711 108.569C505.479 109.32 503.539 109.941 502.386 109.949C488.431 110.043 474.474 110.035 460.519 109.965C459.298 109.959 458.079 109.327 456.436 108.907Z" fill="#FAFAF9"/>
<path d="M211.946 97.5454C211.247 97.0167 210.094 96.0287 210.087 95.0321C209.975 80.1131 210 65.1929 210.064 50.2733C210.067 49.585 210.738 48.8995 211.482 48.1021C211.919 64.355 211.972 80.7185 211.946 97.5454Z" fill="#EBEBEB"/>
<path d="M405.07 55.9541C405.763 56.4579 406.905 57.3743 406.913 58.3007C407.027 71.4367 407.004 84.5741 406.941 97.7107C406.937 98.405 406.273 99.0961 405.533 99.8971C405.097 85.4609 405.044 70.9161 405.07 55.9541Z" fill="#F4F4F4"/>
<path d="M154.935 98.5453C154.251 98.3553 153.14 97.7144 153.124 97.0472C152.987 91.3059 152.843 85.5498 153.123 79.8188C153.297 76.2563 156.295 74.9046 159.98 76.2796C160.044 76.3033 160.096 76.5867 160.038 76.6645C159.846 76.9255 159.602 77.1481 159.203 77.621C157.777 77.9786 156.526 78.1006 155.015 78.2478C155.015 84.9761 155.015 91.5292 154.935 98.5453Z" fill="#F0F0F0"/>
<path d="M197.184 109.48C203.239 109.102 209.513 109.102 215.898 109.486C209.806 109.865 203.604 109.861 197.184 109.48Z" fill="#EAEAEA"/>
<path d="M144.028 48.4385C147.698 52.402 146.181 57.1106 144.501 61.9134C144.056 57.6461 143.999 53.2719 144.028 48.4385Z" fill="#DADAD9"/>
<path d="M144.027 87.4375C147.62 91.0532 146.227 95.4181 144.495 99.9008C144.058 95.9791 144 91.9373 144.027 87.4375Z" fill="#DADAD9"/>
<path d="M463.718 20.1157C463.849 20.4548 463.636 20.6739 463.126 20.8954C463.087 20.6705 463.268 20.3699 463.718 20.1157Z" fill="white"/>
<path d="M528.5 163C532.108 163.735 538.29 166.559 542 168C541.048 168.837 532.5 171.5 528.5 163Z" fill="#E3E3E3"/>
<path d="M351.411 100.565C351.121 101.103 350.683 101.42 350.244 101.737C350.284 101.199 350.324 100.662 350.643 100.028C351.035 100.069 351.149 100.206 351.411 100.565Z" fill="black"/>
<path d="M321.588 47.431C321.877 46.8925 322.316 46.5771 322.755 46.2617C322.716 46.8002 322.677 47.3386 322.358 47.9732C321.964 47.931 321.851 47.7926 321.588 47.431Z" fill="black"/>
<path d="M422.682 44.0057C431.929 44.89 436.061 54.8451 433.362 64.1179C431.571 70.2725 423.212 74.888 417.356 72.852C416.266 72.473 415.109 70.4697 415.071 69.184C414.856 61.8842 414.803 54.5694 415.03 47.2702C415.201 41.7768 419.709 44.843 422.682 44.0057Z" fill="black"/>
<path d="M154.728 44.1211C155.103 53.0427 155.071 62.0301 155.09 71.48C154.436 71.2185 153.128 70.5034 153.117 69.7692C152.999 61.7102 153.062 53.648 153.162 45.5877C153.168 45.116 153.918 44.6536 154.728 44.1211Z" fill="#F0F0F0"/>
<path d="M543.5 159C541.251 157.797 538.912 157.12 536.99 155.807C536.201 155.269 536.228 152.86 536 151.5C537.595 151.609 539.68 151.341 541 152C542.755 152.877 544.559 154.587 546 156C546.615 156.603 547.034 158.129 546.812 158.429C545.803 159.796 544.452 160.911 543.224 162.116C542.939 161.812 542.285 161.304 542 161C542.41 160.347 543.132 159.961 543.5 159Z" fill="#E9E9E9"/>
<path d="M548 160.5C547.702 157.832 549.297 151.668 549 149C552.106 151.293 554.55 155.888 551.5 159C551.109 159.085 548 160.5 548 160.5Z" fill="#E5E5E5"/>
<path d="M540.998 147.001C543.136 147.932 545.275 148.864 547.413 149.795C544.707 150.93 542.112 151.715 541.009 147.383C541 147 540.998 147.001 540.998 147.001Z" fill="#E5E5E5"/>
<path d="M541 146.999C539.767 146.788 538.533 146.579 537.299 146.369C537.518 145.66 537.737 144.952 537.955 144.244C538.965 144.91 539.975 145.575 540.991 146.621C540.998 147.001 541 146.999 541 146.999Z" fill="#E5E5E5"/>
<path d="M549.998 156.998C549.842 158.192 549.688 159.388 549.535 160.585C549.144 160.486 548.754 160.388 548.363 160.289C548.735 159.316 549.106 158.343 549.741 157.186C550.005 157.003 550.001 157 549.998 156.998Z" fill="#E5E5E5"/>
</svg>
